<?xml version="1.0" encoding="utf-8"?>
<!-- Generator: Adobe Illustrator 27.2.0, SVG Export Plug-In . SVG Version: 6.00 Build 0)  -->
<svg version="1.1" id="Layer_1" xmlns="http://www.w3.org/2000/svg" xmlns:xlink="http://www.w3.org/1999/xlink" x="0px" y="0px"
	 viewBox="0 0 595.28 841.89" style="enable-background:new 0 0 595.28 841.89;" xml:space="preserve">
<style type="text/css">
	.st0{fill:#EB1D25;}
	.st1{fill:#010000;}
</style>
<g>
	<path class="st0" d="M193.17,337.7c11.05-29.01,7.33-56.45-9.74-81.94c-11.52-17.2-27.3-29.66-46.54-37.49
		c-2.88-1.17-3.43-2.24-2.11-5.01c1.4-2.93,2.44-6.08,3.31-9.22c0.95-3.45,2.91-3.95,5.94-2.78c11.71,4.55,22.21,11.27,32,18.95
		c13.81,10.83,24.01,24.65,31.5,40.49c4.16,8.79,6.95,18.01,8.53,27.6c0.25,1.52,0.25,1.52,1.96,2.37c0,0.67,0,1.33,0,2
		c-0.58-0.35-0.84-0.03-0.9,0.49c-0.08,0.7,0.13,1.28,0.9,1.5c0,7.66,0,15.32,0,22.99c-1.11,1-1.52,2,0,3c0,0.67,0,1.33,0,2
		c-2.27-1.05-1.61,0.91-1.84,1.85c-1.48,5.86-2.35,11.94-4.48,17.54c-7.44,19.53-18.75,36.27-35.12,49.73
		c-20.71,17.02-44.42,27.02-70.7,29.53c-25.35,2.42-50.06-1.4-73.22-13.37c-28.55-14.75-48.07-36.95-58.65-67.26
		c-2.63-7.54-3.88-15.35-5.81-23.02c0-7.99,0-15.99,0-23.98c2.01-6.66,2.66-13.62,4.82-20.29c4.86-15.07,12.53-28.37,23.12-40.1
		c11.4-12.62,24.96-22.31,40.02-29.99c3.33-1.7,6.86-3.07,10.42-4.22c2.7-0.87,5.04-0.74,5.92,3.06c0.95,4.1,4.25,8.29,3.24,12.06
		c-1.03,3.83-6.59,3.92-10.15,5.57c-10.61,4.92-20.74,10.63-29.32,18.56c-5.77,5.33-10.47,11.8-14.57,18.52
		c-9.91,16.24-16.19,33.67-15.46,53.01c0.63,16.4,5.44,31.51,14.98,44.99c9.5,15.24,22.41,26.91,37.92,35.74
		c11.49,6.54,23.98,10.36,36.9,12.85c4.37,0.06,8.6,1.94,13.05,0.98c6.45,0.04,12.84,0.21,19.33-0.66
		c15.91-2.13,30.46-7.54,44.09-15.88c11.21-6.86,19.9-16.4,27.88-26.5C185.95,354.35,190.81,346.62,193.17,337.7z"/>
	<path d="M114.09,164.76c0.43,1.46,1.73,1.89,2.91,2.51c11.87,6.27,15.86,18.59,8.98,29.87c-7.88,12.93-19.11,22.94-30.46,32.75
		c-1.65,1.43-3.18,1.57-4.81-0.03c-9.6-9.42-20.42-17.65-28.29-28.76c-5.11-7.21-7.14-14.98-3.73-23.52
		c4.95-12.4,20.79-13.47,29.34-8.05c3.79,2.41,6.69,3.13,10.1-0.06c2.3-2.15,6.12-1.78,7.97-4.72
		C108.77,164.76,111.43,164.76,114.09,164.76z"/>
	<path class="st1" d="M218.02,320.66c-1.52-1-1.11-2,0-3C218.02,318.66,218.02,319.66,218.02,320.66z"/>
	<path class="st1" d="M218.02,294.67c-0.77-0.22-0.98-0.8-0.9-1.5c0.06-0.53,0.31-0.84,0.9-0.49
		C218.02,293.34,218.02,294.01,218.02,294.67z"/>
	<path d="M76.02,403.45c-12.93-2.49-25.42-6.31-36.9-12.85c-15.51-8.83-28.42-20.5-37.92-35.74c5.04-6.56,6.03-14.61,7.88-22.26
		c2.34-9.7,4.3-19.5,7.62-28.92c5.75-16.32,18.2-22.11,34.5-20.4c4.51,0.48,6.98-0.76,9.36-4.52c6.55-10.35,14.57-19.84,25.87-24.69
		c7.54-3.24,16.35-2.93,23.79,2.38c9.29,6.63,15.28,14.72,16.46,26.98c1.07,11.05,7.09,20.7,15.79,28.12
		c4.22,3.61,9.26,5.25,14.8,4.45c3.46-0.5,6.53,0,9.63,1.57c2.35,1.2,4.88,2.27,7.45,2.78c9.88,1.96,15.25,8.65,18.83,17.36
		c-2.36,8.92-7.22,16.64-12.8,23.69c-7.99,10.1-16.67,19.63-27.88,26.5c-13.63,8.34-28.18,13.76-44.09,15.88
		c-6.49,0.87-12.88,0.7-19.33,0.66c-0.97-12.7,1.23-25.22,2.24-37.8c0.42-5.17,2.56-9.7,5.94-13.98
		c4.71-5.98,11.04-10.11,16.05-15.66c1.1-1.22,2.49-2.24,2.09-4.25c-0.69-3.49-3.4-4.38-6.67-1.72c-4.21,3.42-7.88,4.87-12.72,0.58
		c-2.9-2.57-6.81-4.02-9.26-7.34c-0.42-0.57-1.4-0.97-2.14-1c-4.68-0.21-12.07,7.16-12.1,11.96c-0.06,10.01-1.55,11.79-11.38,11.3
		c-5.36-0.26-7.96,2.22-9.73,6.66c-1.73,4.33-1.98,8.22,1.63,11.95c2.98,3.08,6.41,5.24,10.23,6.98c4.56,2.08,7.59,5.6,10.21,9.87
		C77.69,388.87,75.38,396.28,76.02,403.45z M77.42,320.65c1.37-7.23,0.11-10.21-5.86-14.35C71.81,311.68,72.19,316.85,77.42,320.65z
		"/>
</g>
</svg>
