<?xml version="1.0" encoding="utf-8"?>
<!-- Generator: Adobe Illustrator 27.2.0, SVG Export Plug-In . SVG Version: 6.00 Build 0)  -->
<svg version="1.1" id="Layer_1" xmlns="http://www.w3.org/2000/svg" xmlns:xlink="http://www.w3.org/1999/xlink" x="0px" y="0px"
	 viewBox="0 0 595.28 841.89" style="enable-background:new 0 0 595.28 841.89;" xml:space="preserve">
<style type="text/css">
	.st0{fill:#AF722A;}
	.st1{fill:#391B11;}
	.st2{fill:#DABAA1;}
	.st3{fill:#DABBA1;}
	.st4{fill:#955C25;}
	.st5{fill:#B1907D;}
	.st6{fill:#AB766B;}
	.st7{fill:#CC8D87;}
	.st8{fill:#A1CCD6;}
	.st9{fill:#E7C8AE;}
	.st10{fill:#B1917D;}
	.st11{fill:#B0907C;}
	.st12{fill:#0B0908;}
	.st13{fill:#140F0C;}
	.st14{fill:#9A7865;}
</style>
<g>
	<path class="st0" d="M103.1,512.49c1.6-0.42,2.92,0.46,4.21,1.09c24.59,11.96,50.57,20.52,75.76,31c10,4.16,19.89,8.56,29.84,12.85
		c0,22.13-0.09,44.27,0.09,66.4c0.03,3.61-0.59,4.68-4.51,4.67c-124.81-0.13-249.62-0.11-374.43-0.11c-6.99,0-13.98,0-20.97,0
		c1.77-14.07,7.74-25.32,21.46-31.03c11.44-4.76,23.02-9.2,34.53-13.78c1.23,1.06,2.48,0.37,3.77,0.12
		c13.17-2.6,26.53-3.77,39.85-5.17c13.36-1.41,26.66-3.01,39.64-6.47c10.94-2.92,21.32-6.93,25.76-18.87
		c7.57,8.85,17.31,14.66,28.43,16.97c18.09,3.77,35.58,0.72,51.91-8.03C79.27,550.98,93.25,533.57,103.1,512.49z"/>
	<path class="st1" d="M-75.93,442.58c-4.06-4.11-4.03-8.4,0.07-13.26c12.14,1.06,20.72,7.37,25.81,18.21
		c4.43,9.42,8.4,10.08,15.39,2.35c6.3-6.97,14.16-12.16,22.61-16.38c3.98-1.98,7.67-4.25,10.13-8.25c6.92-11.24,9.4-23.28,6.63-36.2
		c-1.15-5.36-2.05-11.55-6.78-14.71c-7.45-4.98-12.81-11.94-19.26-17.83c-1.38-1.26-2.12-2.8-2.67-4.57
		c-2.21-6.98-0.63-13.62,1.45-20.29c1.72-5.5-0.87-9.01-6.66-9.13c-3.29-0.07-6.53-0.14-9.81,0.94c-4.58,1.5-9.22,1.09-14.05,0.36
		c-5.01-0.76-11.02-3.67-14.85,2.85c-4.3-1.05-6.89-4.16-9.13-7.65c-10.05-15.6-5.55-31.14,3.69-44.88
		c5.69-8.46,12.06-15.05,22.09-16.71c13.82-2.29,27.17-7.45,41.47-6.88c6.92,0.27,13.41,2.52,20.05,4.07
		c6.25,1.46,12.36-0.83,18.53-0.09c8.16,0.98,16.34,1.8,22.81,7.82c1.01,0.94,2.52,1.34,4.12,1.29
		c14.38-0.45,26.77,4.87,38.02,13.36c2.95,2.22,5.93,4.98,6.83,8.32c2.32,8.62,9.23,13.77,14.15,20.39
		c2.88,3.88,5.58,7.71,5.2,12.84c-0.37,4.97,1.22,9.33,3.97,13.38c1.77,2.61,2.96,5.46,3.27,8.63c-0.23,0.82-0.38,1.62,0.63,2.06
		c0.11,0.65,0.21,1.3,0.32,1.94c0,1.31,0,2.63,0,3.94c-0.1,0.98-0.21,1.97-0.31,2.95c-1.02,0.44-0.88,1.23-0.62,2.05
		c-2.81,10.56-3.86,21.52-7.27,31.94c-0.4,1.22-0.97,2.53-1.85,3.4c-7.92,7.8-9.63,18.96-15.23,27.98
		c-5.67,9.14-11.83,17.97-17.68,27c-3.64,5.62-6.55,11.59-7.27,18.39c-0.58-0.76-1.34-1.44-1.72-2.29c-4.11-9.15-7.03-18.75-8-28.67
		c-0.7-7.11-0.76-14.32,2.44-21.38c2.47-5.43,3.41-11.55,1.49-17.76c-2.81-9.07-9.94-12.54-18.21-14.48
		c-7.17-1.68-12.03,2.11-15.8,7.63c-0.66,0.96-0.88,2.01-2.26,2.27c-3.33,0.64-4.73,3.37-5.71,6.1c-2.55,7.13-4.14,14.41-4.17,22.1
		c-0.03,7.97,0.51,15.86,1.29,23.77c0.04,2.7-1.05,5.49,0.63,8.06c-0.02,4.93-0.05,9.86-0.07,14.8c-0.96,0.49-0.77,1.29-0.57,2.09
		c0.01,3.56-1.73,6.66-2.62,9.98c-7.3,7.69-16.58,12.32-26.26,15.87c-9.61,3.53-19.59,6.03-29.41,8.98
		c-5.3,0.91-10.59,1.88-15.9,2.72c-9.24,1.46-17.33-1.51-24.58-6.95c-6.74-5.04-6.07-12.41-4.86-19.38c0.54-3.12,1.38-6.6,3.6-9.3
		c0.98,0.67,0.73,1.75,0.91,2.69c1.14,5.95,3.52,6.99,8.36,3.54c3.75-2.67,7.08-5.68,9.83-9.53c2.83-3.95,2.12-6.82-1.12-9.73
		c-3.69-4.17-8.75-6.53-13.04-9.9C-70.52,441.4-73.04,440.87-75.93,442.58z M-60.37,265.87c5.69-2.21,11.38-4.41,17.07-6.62
		C-49.9,259.06-55.23,262.2-60.37,265.87z"/>
	<path class="st2" d="M27.2,439.5c-0.78-7.9-1.32-15.8-1.29-23.77c0.03-7.69,1.62-14.97,4.17-22.1c0.98-2.74,2.38-5.46,5.71-6.1
		c1.37-0.27,1.6-1.31,2.26-2.27c3.77-5.53,8.63-9.31,15.8-7.63c8.27,1.94,15.4,5.41,18.21,14.48c1.92,6.21,0.98,12.33-1.49,17.76
		c-3.21,7.06-3.14,14.26-2.44,21.38c0.97,9.93,3.89,19.52,8,28.67c0.38,0.85,1.14,1.53,1.72,2.29c1.45,6.45,2.8,12.93,4.37,19.35
		c2.82,11.48,8.5,21.13,18.43,27.94c1.1,0.76,2.19,1.53,2.43,2.98c-9.85,21.08-23.83,38.49-44.66,49.65
		c-16.33,8.75-33.82,11.8-51.91,8.03c-11.12-2.32-20.86-8.12-28.43-16.97c-0.03-0.29-0.09-0.58-0.16-0.87
		c1.49-19.28,6.76-36.94,21.87-50.25c5.48-4.83,11.22-9.36,16.83-14.03c15.63-13.03,16.84-9.95,17.38-32.36
		c0.08-3.47,1.45-6.01,4.87-7.36c10.59-4.17,17.1-12.76,23.25-21.71c0.64-0.62,2.05-1.48,1.2-2.11c-0.93-0.67-1.23,0.95-1.65,1.72
		c-5.94,3.78-9.78,9.76-15.04,14.3c-6.16,5.31-10.06,5.15-14.58-1.89c-0.02,8.82-0.15,17.21-0.97,25.59
		c-0.46,4.71-2.13,8.21-6.52,10.2c0.9-3.32,2.64-6.42,2.62-9.98c1.33-0.39,1.84-1,0.57-2.09c0.02-4.93,0.05-9.86,0.07-14.8
		C29.29,444.75,30.31,441.96,27.2,439.5z M61.97,421.49c0.05-0.12,0.1-0.23,0.16-0.35C62.08,421.26,62.03,421.38,61.97,421.49
		c-0.33,0.34-0.67,0.67-1,1c-0.68,0.31-1.36,0.63-2.05,0.94c-2.1,0.83-4.61,1.07-5.64,3.51c-0.25,0.61,0.42,1.41,1.13,1.26
		c2.49-0.5,4-2.13,4.71-4.54c0.62-0.39,1.24-0.77,1.86-1.16C61.31,422.16,61.64,421.83,61.97,421.49z M51.98,419.49
		c0.23,0.21-0.27,1.03,0.59,0.71C52.37,419.96,52.17,419.73,51.98,419.49c-0.4-5.76-4.49-10.46-9.52-10.93
		c-1.61-0.15-2.97,0.14-3.72,1.76c-0.72,1.55-1.32,3.34-0.45,4.76c0.98,1.6,2.34-0.08,3.48-0.38
		C46.57,413.41,49.74,415.43,51.98,419.49z M68.98,394.85c-2.68-10.3-16.62-15.47-23.75-10.03c-1.42,1.08-2.69,2.51-3.62,4.04
		c-0.97,1.59-1.4,3.71,0.58,4.84c2,1.14,2.98-0.73,3.74-2.16c1.7-3.19,4.42-3.95,7.83-4.19C59.82,386.9,64.18,389.81,68.98,394.85z
		 M55.63,416.38c2.08-5.63,1.85-7.5-1.62-10.26c-2.43-1.94-5.19-3.48-7.86-5.11c-1.15-0.7-2.46-2.6-3.71-1.22
		c-1.22,1.34,0.19,3.11,1.05,4.47c0.51,0.8,1.33,1.53,2.18,1.95C49.97,408.28,53.07,411.55,55.63,416.38z M69.5,396.23l-0.23,0.37
		l0.36,0.05L69.5,396.23z"/>
	<path class="st3" d="M-67.92,326.67c3.83-6.52,9.84-3.61,14.85-2.85c4.83,0.73,9.48,1.14,14.05-0.36c3.27-1.08,6.52-1.01,9.81-0.94
		c5.78,0.12,8.37,3.63,6.66,9.13c-2.08,6.67-3.66,13.31-1.45,20.29c0.56,1.76,1.29,3.31,2.67,4.57
		c6.45,5.89,11.81,12.85,19.26,17.83c4.73,3.16,5.63,9.35,6.78,14.71c2.76,12.92,0.28,24.96-6.63,36.2c-2.46,4-6.15,6.27-10.13,8.25
		c-8.45,4.21-16.3,9.4-22.61,16.38c-6.99,7.74-10.96,7.08-15.39-2.35c-5.09-10.84-13.67-17.15-25.81-18.21
		c-2.53-2.85-6.2-3.75-9.42-5.39c-6.42-3.27-7.74-7.47-3.78-13.69c5.79-9.1,11.79-18.06,16.78-27.65c1.16-2.23,2.31-4.41,2.22-7.01
		l0.2-0.15c1.57,0.82,2.91,1.92,4.88,2.09c7.28,0.63,14.55,1.22,21.55,3.7c3.93,1.39,8.12,2.04,12.52,3.1
		c-0.34-0.79-0.38-1.22-0.59-1.36c-11.64-7.17-24.14-11.77-37.88-12.61c-2.87-0.18-0.99,1.62-0.96,2.64
		c-0.28,0.24-0.55,0.48-0.83,0.72c-2.73-2.31-3.4-5.27-2.41-8.55c3.47-11.48,4.22-23.43,6.28-35.15
		C-67.08,328.74-67.4,327.72-67.92,326.67z M-58.99,418.52l-0.18-0.22l0.22,0.17c0.11,4.96-0.12,9.71-6.76,10.61
		c2.89,0.6,5.49,0.84,7.25-1.87C-56.51,424.2-56.9,421.3-58.99,418.52z M-34.7,391.3l-0.17-0.05c-6.29-4.71-13.75-7.28-21.01-12.15
		c0.43,2.2,0.66,3.41,0.9,4.62c-1.36,0.75-2.13-2.2-3.62-0.58c2.06,0.58-1.45,3,1.31,3.63c3.69,0.85,4.62,3.43,3.34,6.89
		c0.99,0.93,1.97,0.94,2.95-0.01c1.02,0.01,2.03,0.01,3.05,0.02c1.65,1.11,3.3,1.15,4.94-0.02c1.68-0.01,3.36-0.02,5.04-0.02
		c0.98,0.98,1.97,0.97,2.96,0.01c1.21-0.1,2.41-0.2,3.68-0.31c-0.49-1.39-1.64-0.99-2.46-1.3C-33.81,391.43-34.07,391.14-34.7,391.3
		z"/>
	<path class="st4" d="M-22.06,552.33c0.07,0.29,0.13,0.58,0.16,0.87c-4.45,11.93-14.83,15.95-25.76,18.87
		c-12.98,3.46-26.29,5.06-39.64,6.47c-13.31,1.41-26.68,2.57-39.85,5.17c-1.29,0.25-2.54,0.94-3.77-0.12
		c16.5-6.71,33.07-13.26,49.49-20.18c16.14-6.8,32.18-13.86,47.23-22.9c1.54-0.92,2.79-2.32,4.18-3.5
		C-27.59,542.24-25.93,547.86-22.06,552.33z"/>
	<path class="st5" d="M-22.06,552.33c-3.87-4.47-5.53-10.09-7.96-15.31c5.15-11.91,3.85-23.92,0.53-35.94
		c-0.19-0.69-1.06-1.2-1.61-1.79c9.82-2.95,19.8-5.45,29.41-8.98c9.68-3.56,18.96-8.18,26.26-15.87c4.39-1.99,6.06-5.49,6.52-10.2
		c0.81-8.38,0.94-16.77,0.97-25.59c4.52,7.03,8.42,7.2,14.58,1.89c5.26-4.53,9.09-10.52,15.04-14.3c0.15,0.13,0.3,0.25,0.46,0.38
		c-6.15,8.95-12.66,17.53-23.25,21.71c-3.42,1.35-4.78,3.89-4.87,7.36c-0.54,22.41-1.75,19.33-17.38,32.36
		c-5.61,4.68-11.35,9.21-16.83,14.03C-15.3,515.39-20.57,533.05-22.06,552.33z"/>
	<path class="st3" d="M-54.87,453.34c3.24,2.91,3.95,5.78,1.12,9.73c-2.75,3.84-6.08,6.86-9.83,9.53c-4.84,3.45-7.22,2.41-8.36-3.54
		c-0.18-0.94,0.08-2.02-0.91-2.69c1.23-3.45,1.13-6.75-1.06-9.84c5.77-0.19,11.7,0.61,17.03-2.54
		C-56.21,453.77-55.54,453.56-54.87,453.34z"/>
	<path class="st6" d="M-54.87,453.34c-0.67,0.22-1.34,0.43-2.01,0.65c-5.57-1.91-11.88-1.01-17.04-4.49
		c-0.49-2.36-3.03-4.12-2.02-6.92c2.89-1.7,5.41-1.18,8.02,0.87C-63.63,446.82-58.56,449.17-54.87,453.34z"/>
	<path class="st7" d="M-73.92,449.49c5.16,3.48,11.47,2.58,17.04,4.49c-5.33,3.16-11.25,2.36-17.03,2.54
		C-76.86,454.19-76.97,451.84-73.92,449.49z"/>
	<path class="st8" d="M127.77,342.61c-1.01-0.44-0.86-1.24-0.63-2.06C128.44,340.91,129.01,341.49,127.77,342.61z"/>
	<path class="st8" d="M128.09,348.5c0-1.31,0-2.63,0-3.94C129.14,345.87,129.14,347.19,128.09,348.5z"/>
	<path class="st8" d="M127.17,353.51c-0.26-0.83-0.4-1.61,0.62-2.05C129.02,352.57,128.44,353.14,127.17,353.51z"/>
	<path class="st3" d="M-70.06,375.57c-0.37-0.62-0.74-1.25-1.12-1.87c0.27-0.24,0.55-0.48,0.83-0.72c0.16,0.81,0.33,1.62,0.49,2.43
		L-70.06,375.57z"/>
	<path class="st8" d="M-60.37,265.87c5.14-3.67,10.47-6.81,17.07-6.62C-48.99,261.45-54.68,263.66-60.37,265.87z"/>
	<path class="st9" d="M27.2,439.5c3.12,2.46,2.09,5.25,0.63,8.06C26.14,444.99,27.24,442.2,27.2,439.5z"/>
	<path class="st9" d="M27.76,462.36c1.27,1.09,0.76,1.71-0.57,2.09C26.99,463.65,26.8,462.85,27.76,462.36z"/>
	<path class="st10" d="M68.98,394.85c-4.8-5.04-9.17-7.94-15.22-7.52c-3.41,0.24-6.13,1.01-7.83,4.19
		c-0.77,1.43-1.74,3.31-3.74,2.16c-1.98-1.13-1.55-3.25-0.58-4.84c0.93-1.52,2.2-2.95,3.62-4.04
		C52.37,379.38,66.3,384.55,68.98,394.85z"/>
	<path class="st11" d="M55.63,416.38c-2.56-4.82-5.66-8.1-9.96-10.18c-0.85-0.41-1.68-1.15-2.18-1.95
		c-0.86-1.35-2.26-3.13-1.05-4.47c1.25-1.38,2.56,0.52,3.71,1.22c2.67,1.63,5.43,3.17,7.86,5.11
		C57.49,408.88,57.72,410.75,55.63,416.38z"/>
	<path class="st10" d="M51.98,419.49c-2.25-4.06-5.41-6.08-10.21-4.79c-1.14,0.3-2.5,1.98-3.48,0.38c-0.87-1.42-0.27-3.22,0.45-4.76
		c0.75-1.63,2.11-1.92,3.72-1.76C47.49,409.03,51.59,413.73,51.98,419.49L51.98,419.49z"/>
	<path class="st10" d="M59.13,423.66c-0.71,2.4-2.23,4.03-4.71,4.54c-0.71,0.14-1.38-0.66-1.13-1.26c1.03-2.44,3.54-2.68,5.64-3.51
		C58.93,423.43,59.13,423.66,59.13,423.66z"/>
	<path class="st5" d="M61.67,426.23c0.42-0.77,0.72-2.4,1.65-1.72c0.86,0.63-0.56,1.48-1.2,2.11
		C61.98,426.49,61.82,426.36,61.67,426.23z"/>
	<path class="st10" d="M51.97,419.5c0.2,0.23,0.4,0.47,0.6,0.7C51.72,420.52,52.21,419.7,51.97,419.5
		C51.98,419.49,51.97,419.5,51.97,419.5z"/>
	<path class="st10" d="M60.98,422.5c-0.62,0.39-1.24,0.77-1.85,1.16c0,0-0.2-0.23-0.2-0.23C59.61,423.11,60.29,422.8,60.98,422.5
		C60.97,422.49,60.98,422.5,60.98,422.5z"/>
	<polygon class="st10" points="69.5,396.23 69.64,396.65 69.27,396.59 	"/>
	<path class="st10" d="M61.98,421.5c0.05-0.12,0.1-0.24,0.15-0.36C62.07,421.26,62.02,421.37,61.98,421.5
		C61.97,421.49,61.98,421.5,61.98,421.5z"/>
	<path class="st10" d="M60.97,422.49c0.34-0.33,0.67-0.66,1.01-0.99c0,0-0.01-0.01-0.01-0.01
		C61.64,421.83,61.31,422.16,60.97,422.49C60.98,422.5,60.97,422.49,60.97,422.49z"/>
	<path class="st12" d="M-69.86,375.41c-0.16-0.81-0.33-1.62-0.49-2.43c-0.03-1.01-1.91-2.81,0.96-2.64
		c13.74,0.84,26.24,5.44,37.88,12.61c0.22,0.14,0.26,0.56,0.59,1.36c-4.39-1.06-8.58-1.71-12.52-3.1
		c-7.01-2.47-14.28-3.07-21.55-3.7C-66.94,377.34-68.29,376.23-69.86,375.41z"/>
	<path class="st13" d="M-37.96,393.63c-1.68,0.01-3.36,0.02-5.04,0.02c-1.65,0.01-3.3,0.01-4.94,0.02
		c-1.02-0.01-2.03-0.01-3.05-0.02c-0.98,0-1.97,0.01-2.95,0.01c1.28-3.46,0.34-6.04-3.34-6.89c-2.76-0.63,0.75-3.05-1.31-3.63
		c1.5-1.63,2.27,1.33,3.62,0.58c6.18,3.91,12.57,7.24,20.11,7.53c0,0,0.17,0.05,0.17,0.05c-0.06,0.69,0.3,0.87,0.91,0.72
		c0.82,0.31,1.97-0.09,2.46,1.3c-1.26,0.11-2.47,0.21-3.68,0.31C-35.99,393.63-36.97,393.63-37.96,393.63z"/>
	<path class="st14" d="M-34.87,391.25c-7.54-0.29-13.93-3.62-20.11-7.53c-0.24-1.21-0.47-2.42-0.9-4.62
		C-48.62,383.97-41.16,386.54-34.87,391.25z"/>
	<path class="st11" d="M-58.99,418.52c2.09,2.78,2.48,5.68,0.53,8.69c-1.75,2.71-4.36,2.47-7.25,1.87
		c6.65-0.89,6.88-5.65,6.76-10.61L-58.99,418.52z"/>
	<path class="st9" d="M-47.95,393.67c1.65-0.01,3.3-0.01,4.94-0.02C-44.65,394.81-46.3,394.77-47.95,393.67z"/>
	<path class="st9" d="M-37.96,393.63c0.99,0,1.97,0.01,2.96,0.01C-35.99,394.6-36.98,394.6-37.96,393.63z"/>
	<path class="st9" d="M-53.95,393.66c0.98,0,1.97-0.01,2.95-0.01C-51.98,394.6-52.96,394.59-53.95,393.66z"/>
	<polygon class="st11" points="-58.94,418.48 -59.17,418.31 -58.99,418.52 	"/>
	<path class="st14" d="M-33.79,392.03c-0.61,0.15-0.97-0.03-0.91-0.72C-34.07,391.14-33.81,391.43-33.79,392.03z"/>
</g>
</svg>
